<?xml version="1.0" encoding="utf-8"?>
<!-- Generator: Adobe Illustrator 16.0.0, SVG Export Plug-In . SVG Version: 6.00 Build 0)  -->
<!DOCTYPE svg PUBLIC "-//W3C//DTD SVG 1.1//EN" "http://www.w3.org/Graphics/SVG/1.1/DTD/svg11.dtd">
<svg version="1.1" id="Layer_1" xmlns="http://www.w3.org/2000/svg" xmlns:xlink="http://www.w3.org/1999/xlink" x="0px" y="0px"
	 width="14.998px" height="16px" viewBox="0 0 14.998 16" enable-background="new 0 0 14.998 16" xml:space="preserve">
<g>
	<path fill-rule="evenodd" clip-rule="evenodd" fill="#FFFFFF" d="M9.16,3.54h2.09v2.39l1.06-1.62V2.96c0-0.08-0.04-0.16-0.1-0.22
		L9.52,0.09C9.46,0.03,9.38,0,9.29,0H0.95C0.43,0,0,0.42,0,0.93v14.14C0,15.58,0.43,16,0.95,16h10.4c0.53,0,0.96-0.42,0.96-0.93
		v-4.02l-1.06,1.59v2.32H1.06V1.04h7.71v2.11C8.77,3.36,8.95,3.54,9.16,3.54z"/>
	<path fill-rule="evenodd" clip-rule="evenodd" fill="#FFFFFF" d="M13.49,7.43l-0.44-0.28c-0.07-0.04-0.17-0.02-0.21,0.05
		l-2.36,3.53l-0.45-0.29l2.35-3.53c0.05-0.07,0.03-0.17-0.04-0.21L11.9,6.42c-0.07-0.05-0.17-0.03-0.21,0.04l-3.52,5.3
		c-0.02,0.02-0.03,0.05-0.03,0.07l-0.09,1.84c0,0.05,0.02,0.11,0.07,0.14c0.04,0.02,0.1,0.03,0.15,0l1.68-0.82
		c0.02-0.01,0.04-0.03,0.06-0.05l3.52-5.3C13.58,7.57,13.56,7.48,13.49,7.43z"/>
	<path fill-rule="evenodd" clip-rule="evenodd" fill="#FFFFFF" d="M14.93,5.26l-1.58-1.01c-0.08-0.05-0.17-0.03-0.22,0.04L12.06,5.9
		c-0.04,0.07-0.02,0.16,0.05,0.21l1.58,1.01c0.07,0.05,0.17,0.03,0.22-0.04l1.06-1.61C15.02,5.4,15,5.31,14.93,5.26z"/>
	<path fill-rule="evenodd" clip-rule="evenodd" fill="#FFFFFF" d="M2.6,3.33h3.02c0.22,0,0.39-0.17,0.39-0.38S5.84,2.57,5.62,2.57
		H2.6c-0.22,0-0.39,0.17-0.39,0.38S2.38,3.33,2.6,3.33z"/>
	<path fill-rule="evenodd" clip-rule="evenodd" fill="#FFFFFF" d="M8.34,4.86c0-0.21-0.18-0.39-0.39-0.39H2.6
		c-0.22,0-0.39,0.18-0.39,0.39S2.38,5.24,2.6,5.24h5.35C8.16,5.24,8.34,5.07,8.34,4.86z"/>
	<path fill-rule="evenodd" clip-rule="evenodd" fill="#FFFFFF" d="M2.6,7.14h3.02c0.22,0,0.39-0.17,0.39-0.38
		c0-0.21-0.17-0.38-0.39-0.38H2.6c-0.22,0-0.39,0.17-0.39,0.38C2.21,6.97,2.38,7.14,2.6,7.14z"/>
	<path fill-rule="evenodd" clip-rule="evenodd" fill="#FFFFFF" d="M2.6,9.05h3.02c0.22,0,0.39-0.17,0.39-0.38
		c0-0.22-0.17-0.39-0.39-0.39H2.6c-0.22,0-0.39,0.17-0.39,0.39C2.21,8.88,2.38,9.05,2.6,9.05z"/>
	<path fill-rule="evenodd" clip-rule="evenodd" fill="#FFFFFF" d="M3.26,12.52c-0.03-0.15-0.08-0.3-0.09-0.44
		c-0.02-0.26,0.03-0.54,0.16-0.78c0.09-0.14,0.26-0.36,0.44-0.38c0.16-0.02,0.06,0.37,0.05,0.45c-0.05,0.23-0.08,0.47-0.14,0.71
		c-0.05,0.22-0.12,0.44-0.21,0.65C3.43,12.62,3.37,12.55,3.26,12.52z M3.1,12.89c-0.03,0.13-0.19,0.25-0.32,0.26
		c-0.1,0.01-0.04-0.16-0.02-0.2c0.07-0.13,0.22-0.21,0.35-0.24C3.12,12.77,3.12,12.83,3.1,12.89z M2.76,13.97
		c-0.07,0.1,0.06,0.23,0.14,0.13c0.24-0.3,0.44-0.63,0.6-0.98c0.11,0.07,0.24,0.05,0.36,0.01c0.16-0.06,0.29-0.18,0.42-0.29
		c0.08-0.07,0.17-0.17,0.28-0.18c0.08-0.01,0.19,0.05,0.27,0.07c0.21,0.03,0.46-0.03,0.66-0.08c0.2-0.04,0.42-0.12,0.54-0.29
		c0.07-0.11-0.1-0.2-0.17-0.1c-0.09,0.14-0.31,0.18-0.46,0.22c-0.18,0.04-0.39,0.09-0.57,0.05c-0.14-0.02-0.25-0.1-0.39-0.04
		c-0.19,0.08-0.34,0.26-0.5,0.38c-0.08,0.05-0.16,0.1-0.26,0.11c-0.04,0-0.07-0.01-0.09-0.04l0.06-0.14
		c0.19-0.46,0.27-0.93,0.36-1.41c0.04-0.25,0.12-0.64-0.24-0.66c-0.32-0.02-0.6,0.43-0.7,0.66c-0.09,0.22-0.1,0.46-0.09,0.69
		c0,0.14,0.06,0.29,0.09,0.44c-0.3,0.04-0.57,0.35-0.52,0.65c0.04,0.29,0.42,0.14,0.56,0.03c0.14-0.11,0.19-0.25,0.19-0.4l0.08,0.15
		C3.21,13.32,3.01,13.66,2.76,13.97z"/>
</g>
</svg>
