<?xml version="1.0" encoding="utf-8"?>
<!-- Generator: Adobe Illustrator 16.0.0, SVG Export Plug-In . SVG Version: 6.00 Build 0)  -->
<!DOCTYPE svg PUBLIC "-//W3C//DTD SVG 1.1//EN" "http://www.w3.org/Graphics/SVG/1.1/DTD/svg11.dtd">
<svg version="1.1" id="Layer_1" xmlns="http://www.w3.org/2000/svg" xmlns:xlink="http://www.w3.org/1999/xlink" x="0px" y="0px"
	 width="16px" height="13px" viewBox="0 0 16 13" enable-background="new 0 0 16 13" xml:space="preserve">
<path fill-rule="evenodd" clip-rule="evenodd" fill="#FFFFFF" d="M6.11,6.63C5.58,6.14,5.24,5.45,5.22,4.7L5,4.69H3
	c-1.65,0-3,1.3-3,2.9v2.35l0.01,0.03l0.16,0.06c1.27,0.38,2.4,0.55,3.39,0.61V9.93C3.56,8.37,4.63,7.05,6.11,6.63z M4,4.53
	c0.46,0,0.89-0.13,1.25-0.35c0.11-0.72,0.52-1.36,1.09-1.79l0.01-0.12C6.35,1.01,5.3,0,4,0S1.65,1.01,1.65,2.27
	C1.65,3.52,2.7,4.53,4,4.53z M13,4.69h-1.98C11,5.45,10.66,6.14,10.13,6.63c1.47,0.42,2.55,1.74,2.55,3.3v0.72
	c1.95-0.07,3.07-0.6,3.15-0.64l0.15-0.07H16V7.59C16,5.99,14.65,4.69,13,4.69z M9.11,7.02H7.12c-1.65,0-3,1.31-3,2.91v2.35v0.03
	l0.17,0.05C5.87,12.84,7.25,13,8.38,13c2.21,0,3.48-0.61,3.56-0.65l0.16-0.07h0.02V9.93C12.12,8.33,10.77,7.02,9.11,7.02z
	 M8.12,6.87c1.29,0,2.34-1.01,2.34-2.27c0-1.25-1.05-2.26-2.34-2.26c-1.3,0-2.35,1.01-2.35,2.26C5.77,5.86,6.82,6.87,8.12,6.87z
	 M9.65,2.23c0.74,0.45,1.26,1.21,1.36,2.09c0.3,0.13,0.63,0.21,0.99,0.21c1.3,0,2.35-1.01,2.35-2.26C14.35,1.01,13.3,0,12,0
	C10.72,0,9.67,1,9.65,2.23z"/>
</svg>
