<?xml version="1.0" encoding="utf-8"?>
<!-- Generator: Adobe Illustrator 16.0.0, SVG Export Plug-In . SVG Version: 6.00 Build 0)  -->
<!DOCTYPE svg PUBLIC "-//W3C//DTD SVG 1.1//EN" "http://www.w3.org/Graphics/SVG/1.1/DTD/svg11.dtd">
<svg version="1.1" id="Layer_1" xmlns="http://www.w3.org/2000/svg" xmlns:xlink="http://www.w3.org/1999/xlink" x="0px" y="0px"
	 width="16.002px" height="13px" viewBox="0 0 16.002 13" enable-background="new 0 0 16.002 13" xml:space="preserve">
<path fill-rule="evenodd" clip-rule="evenodd" fill="#FFFFFF" d="M2.292,2.438l2.77,0.93c0.23,0.1,1.31,0.5,3.22,0.02
	c2.42-0.6,7.67-1.64,7.72-1.66l-0.2-0.98h-0.03l-5-0.7c-0.55-0.08-1.43-0.06-1.98,0.05l-6.68,1.3c-0.87-0.05-1.69,0.49-1.97,1.36
	c-0.16,0.5-0.12,1.03,0.13,1.5c0.12,0.24,0.29,0.44,0.49,0.61c-0.31,0.24-0.54,0.56-0.67,0.95c-0.16,0.5-0.11,1.04,0.13,1.5
	c0.13,0.26,0.31,0.47,0.53,0.64c-0.3,0.23-0.53,0.56-0.66,0.94c-0.16,0.5-0.11,1.04,0.13,1.5c0.24,0.47,0.65,0.82,1.15,0.98
	l4.81,1.54c0.26,0.09,0.7,0.11,0.97,0.04l8.45-1.94l-0.11-0.49c-0.06-0.27-0.33-0.44-0.6-0.38l-7.7,1.77
	c-0.27,0.06-0.7,0.04-0.97-0.04l-4.55-1.46c-0.24-0.08-0.44-0.25-0.56-0.48c-0.12-0.23-0.14-0.49-0.06-0.73
	c0.16-0.5,0.7-0.78,1.2-0.62c0.01-0.01,2.79,0.89,3.93,1.25c0.26,0.08,0.7,0.1,0.97,0.04l8.45-1.94l-0.11-0.49
	c-0.06-0.27-0.33-0.44-0.6-0.38l-7.7,1.77c-0.27,0.06-0.7,0.04-0.97-0.05l-4.55-1.45c-0.24-0.08-0.44-0.25-0.56-0.48
	c-0.12-0.23-0.14-0.49-0.06-0.73c0.16-0.51,0.7-0.78,1.2-0.63l3.98,1.28c0.26,0.08,0.7,0.1,0.97,0.04l8.45-1.95l-0.11-0.49
	c-0.07-0.27-0.33-0.44-0.61-0.38l-7.69,1.77c-0.27,0.06-0.7,0.05-0.97-0.04l-4.55-1.46c-0.25-0.08-0.44-0.25-0.56-0.47
	c-0.12-0.23-0.14-0.49-0.06-0.74C1.262,2.559,1.802,2.278,2.292,2.438z"/>
</svg>
