<?xml version="1.0" encoding="utf-8"?>
<!-- Generator: Adobe Illustrator 16.0.0, SVG Export Plug-In . SVG Version: 6.00 Build 0)  -->
<!DOCTYPE svg PUBLIC "-//W3C//DTD SVG 1.1//EN" "http://www.w3.org/Graphics/SVG/1.1/DTD/svg11.dtd">
<svg version="1.1" id="Layer_1" xmlns="http://www.w3.org/2000/svg" xmlns:xlink="http://www.w3.org/1999/xlink" x="0px" y="0px"
	 width="83px" height="83px" viewBox="0 0 83 83" enable-background="new 0 0 83 83" xml:space="preserve">
<path fill-rule="evenodd" clip-rule="evenodd" fill="#FFFFFF" d="M36.26,0h7.8c0.28,0.58,0.08,2.59,0.08,3.41v8.37l0.04,0.08
	l0.15,0.07l38.63,0.04L83,82.96L82.89,83H0V11.97h0.08h7.65h19.81h5.85c0.79,0,1.99,0.17,2.64-0.07c0.28-0.63,0.15-2.19,0.15-3.07
	l0.04-5.89L36.26,0z M44.29,13.21c-0.3,0.35-0.15,1.48-0.15,2.1V21v22.44l0.04,0.07l0.19,0.04c0.51-0.58,1.18-1.07,1.72-1.62l4.93-5
	L65.9,21.85h5.24v0.12l-2.79,2.83c-0.78,0.79-1.66,1.51-2.29,2.44l-5.13,5.19c-1.77,1.79-3.44,3.68-5.2,5.47l-2.95,2.94
	c-0.15,0.23-0.23,0.39-0.42,0.58c0.04,0.85,1.29,1.56,1.69,2.13c0.81,1.21,1.98,2.06,2.75,3.3l1.3,1.28
	c1.22,1.82,3.01,3.15,4.25,4.96c0.4,0.59,1.02,1,1.45,1.62l1.03,1.01c1.41,1.86,3,3.67,4.71,5.23c1.44,1.33,2.75,2.83,4.62,3.72
	c0.76,0.36,1.62,0.66,2.49,0.85c0.47,0.11,0.93,0.06,1.3,0.16h1.15c0.75,0.11,1.64,0.27,2.48,0.12l0.04-0.12
	c0.11-0.22,0.04-0.84,0.04-1.24v-2.95l0.04-10.42l-0.04-37.74l-0.08-0.04c-0.37-0.23-2.18-0.08-2.79-0.08h-7.3H44.29z M1.53,13.25
	c-0.06,0.07-0.07,0.06-0.11,0.16L1.38,51.38v8.49c0,0.57-0.13,2.69,0.11,2.94c1,0.58,2.72,0.84,3.98,1.16
	c0.9,0.23,2.08,0.43,3.02,0.62h0.96c0.68,0.18,1.87,0.24,2.64,0.08c0.96-0.2,2.16,0.15,3.02-0.08h1.38c1.22,0,2.65,0.05,3.59-0.19
	h0.77c1.6-0.39,3.28-0.82,4.13-1.98c0.7-0.95,1.18-2.7,0.76-4.34c-0.88-3.42-2.62-5.77-4.47-8.17c-2.36-3.06-5.03-5.72-7.54-8.6
	c-1.83-2.11-3.92-4.03-5.51-6.4c-1-1.5-1.77-2.93-2.33-4.92c-0.11-0.38-0.38-1.57-0.34-1.97c0.13-1.59,1.18-3.12,2.18-3.88
	c1.19-0.91,2.55-1.73,4.09-2.29c1.2-0.43,2.74-0.48,4.02-0.77h0.95c0.73-0.14,1.91-0.14,2.64-0.31l0.61,0.04
	c0.63,0.01,1.55,0.01,1.99-0.16l0.04-0.15c-1.38-1.94-3.19-3.61-4.78-5.35c-0.36-0.38-1.2-1.64-1.61-1.82
	c-0.23-0.15-0.79-0.08-1.15-0.08h-2.71H1.53z M19.97,13.25c-0.09,0.11-0.11,0.1-0.12,0.31c0.26,0.29,0.4,0.64,0.61,0.97
	c0.58,0.87,1.26,1.73,1.84,2.6c0.24,0.36,0.48,1.18,0.99,1.24l3.48-3.57c0.32-0.25,1.18-1.01,1.3-1.39v-0.04
	c-0.29-0.29-1.57-0.12-2.1-0.12H19.97z M31.13,13.25l-0.15,0.04c-0.43,0.66-1.09,1.07-1.57,1.67l-3.17,3.45
	c-0.4,0.51-1.77,1.44-1.84,2.13c0.24,0.12,0.72,0.08,1.07,0.07l1.19-0.03c0.58-0.01,1.27-0.08,1.95-0.08h7.31
	c0.3-0.52,0.12-1.93,0.11-2.68c0.17-0.28,0.12-0.83,0.12-1.27c0-1.01,0.15-2.35-0.08-3.22c-0.46-0.12-1.18-0.08-1.76-0.08H31.13z
	 M26.01,24.26l-2.79,0.15c-2.24,0.6-4.18,1.15-5.4,2.75c-0.42,0.56-0.87,1.31-1.11,2.02c-0.45,1.36-0.03,2.69,0.5,3.64
	c0.88,1.57,1.86,2.91,2.87,4.3c2.3,3.17,4.94,5.96,7.31,9.03c1.85,2.41,3.91,4.45,5.16,7.52c0.74,1.82,1.22,6.9,0.15,8.75
	c-1.92,3.32-5.29,4.58-9.48,5.62c-0.44,0.11-0.9-0.02-1.27,0.04c-2.29,0.38-5.55,0.08-8.1,0.08L4.48,68.2
	c-0.56,0-2.91-0.11-3.06,0.15v4.34h0.07l2.3,0.08h5.54h13.24c0.46,0.12,1.2,0.12,1.83,0.12l7.58,0.04c2.76,0.74,5.1,1.92,6.57,4.06
	l1.08,1.63c0.27,0.45,0.41,0.99,0.72,1.4l0.08-0.04c0.32-0.13,0.3-0.44,0.46-0.74l1.34-2.17c1.7-2.07,3.59-3.38,6.61-4.14l8.07-0.04
	c0.62,0,1.31-0.01,1.76-0.12h14.39l6.34-0.04l2.18-0.04v-0.07v-2.76l-0.11-0.03l-1.07-0.04l-1.61-0.2h-0.84
	c-1.13-0.28-2.45-0.17-3.63-0.46c-1.51-0.37-3.08-0.57-4.48-1.09c-1.96-0.72-3.26-1.96-4.78-3.1c-2.95-2.21-5.61-4.79-8.18-7.4
	l-9.15-9.65c-0.72-0.93-1.65-1.7-2.37-2.63c-0.27-0.35-0.66-1.07-1.18-1.13v0.08l-0.04,25.5c-0.11,0.06-0.22,0.08-0.42,0.08h-7.46
	l-0.08-0.12l0.04-11.39c0-7.61,0.08-14.26,0.08-21.86l0.04-7.86c0-0.77,0.24-2.37-0.27-2.6c-0.72-0.39-1.64-0.38-2.49-0.62
	c-1.53-0.42-3.46-0.57-5.16-0.93C27.67,24.25,26.66,24.36,26.01,24.26z M1.76,74.09l-0.27,0.04c-0.25,0.42-0.11,1.49-0.11,2.13v5.23
	c0.47,0.28,2.21,0.12,2.94,0.12h7.42h27.5l0.08-0.04v-0.08c0.21-0.47-0.48-1.27-0.65-1.59c-0.94-1.78-2-3.19-3.63-4.26
	c-0.84-0.55-1.77-0.91-2.83-1.28h-0.58c-0.63-0.1-1.4-0.16-2.22-0.16H24.1L9.68,74.17C7.12,74.17,4.18,74.39,1.76,74.09z
	 M79.79,74.09c-0.53,0.27-1.8,0.08-2.49,0.08h-6.04H55.81c-2.06,0-4.56-0.2-6.35,0.15l-0.85,0.04c-2.21,0.76-3.73,1.66-5.01,3.33
	c-0.59,0.78-2.07,2.63-2.1,3.84c0.57,0.27,2.5,0.08,3.29,0.08h8.07h28.65c0.23-0.49,0.07-1.58,0.07-2.21v-5.2l-0.07-0.03
	C81.19,73.96,80.24,74.08,79.79,74.09z"/>
</svg>
